<svg width="700" height="202" viewBox="0 0 700 202" fill="none" xmlns="http://www.w3.org/2000/svg">
<path d="M190.734 0.0678253L120.187 201.618H0L17.0332 152.94L17.8378 150.647L34.8711 101.996L35.6621 99.7032L52.7226 51.0251L53.5135 48.7323L70.5468 0.0678253H190.734Z" fill="#FFFCDF"/>
<path d="M342.874 0C405.593 0 443.137 56.3434 421.344 117.788L391.628 201.618H271.4L342.874 0Z" fill="#FFFCDF"/>
<path d="M178.297 184.741C188.866 195.214 203.826 201.618 221.664 201.618H256.331C273.309 153.74 290.274 105.849 307.253 57.9714C314.099 38.6521 320.945 19.3328 327.805 0.0135498C317.822 0.0135498 307.867 1.03107 298.061 2.9847C265.481 9.48325 234.579 26.2655 210.031 49.9398C199.244 60.332 189.684 72.0538 181.747 84.8203C175.31 95.1719 169.923 106.215 165.818 117.788C156.504 144.053 162.423 168.989 178.297 184.741Z" fill="#FFFCDF"/>
<path d="M615.297 0C678.016 0 715.56 56.3434 693.767 117.788L664.051 201.618H543.823L615.297 0Z" fill="#FFFCDF"/>
<path d="M599.6 0.0678253L528.167 201.618H407.979L479.413 0.0678253H599.6Z" fill="#FFFCDF"/>
</svg>
